<?xml version="1.0" encoding="utf-8"?>
<!-- Generator: Adobe Illustrator 15.1.0, SVG Export Plug-In . SVG Version: 6.00 Build 0)  -->
<!DOCTYPE svg PUBLIC "-//W3C//DTD SVG 1.1//EN" "http://www.w3.org/Graphics/SVG/1.1/DTD/svg11.dtd">
<svg version="1.1" xmlns="http://www.w3.org/2000/svg" xmlns:xlink="http://www.w3.org/1999/xlink" x="0px" y="0px"
	 width="271.875px" height="273.438px" viewBox="0 0 271.875 273.438" enable-background="new 0 0 271.875 273.438"
	 xml:space="preserve">
<g id="Layer_1">
	<path fill="#353435" stroke="#FFFFFF" stroke-width="14" stroke-miterlimit="10" d="M263.688,138.131
		c-0.732,69.915-58.006,125.993-127.917,125.262C65.864,262.651,9.786,205.384,10.519,135.474
		C11.252,65.564,68.522,9.48,138.434,10.216S264.426,68.223,263.688,138.131z"/>
	<g id="XMLID_2_">
		<g>
			<path fill="#FFFFFF" d="M212.865,89.532c0.198,1.702-2.737,4.989-3.662,6.436c-3.975,6.195-7.809,12.21-12.054,18.023
				c-5.119-0.444-9.861-1.247-14.72-1.956c-0.502,25.343-0.062,51.733-1.162,76.735c-28.259,0.3-59.088-0.017-87.521-0.913
				c-0.578-24.729,0.412-50.979,0.445-76.388c-2.496,0.063-4.878,0.351-7.558,0.641c-2.35,0.252-5.406,1.324-7.558,0.816
				c-1.517-0.345-3.307-3.975-4.435-5.791c-2.92-4.704-4.936-7.993-7.775-12.487c-0.774-1.23-3.73-5.09-3.711-6.324
				c0.023-1.366,2.445-2.627,3.819-3.742c8.555-6.945,16.1-13.279,24.653-20.231c1.376-1.111,2.984-2.66,4.175-3.193
				c2.08-0.933,4.777-1.221,7.204-1.898c6.686-1.864,14.629-3.98,20.914-5.893c0.252-0.075,0.438-0.191,0.719-0.16
				c3.875,0.292,8.771,1.873,14.001,1.937c2.471,0.021,4.969-0.136,7.366-0.462c2.384-0.329,4.759-1.272,6.669-1.188
				c2.114,0.087,4.745,1.517,6.987,2.23c4.854,1.539,9.033,2.967,13.786,4.458c2.481,0.775,5.161,1.152,6.988,2.045
				c1.213,0.583,2.652,2.268,4.102,3.457c8.244,6.839,16.115,13.302,24.591,20.216C210.412,86.943,212.75,88.56,212.865,89.532z"/>
		</g>
		<g>
		</g>
	</g>
	<polygon fill="#231F20" points="156.651,113.846 156.013,113.836 156.019,113.721 156.651,113.727 	"/>
	
		<rect x="160.135" y="113.769" transform="matrix(1 0.0092 -0.0092 1 1.051 -1.4672)" fill="#231F20" width="0.639" height="0.116"/>
	<g>
		<rect x="98.257" y="70.7" fill="none" width="79.169" height="191.569"/>
		<path fill="#353435" d="M122.743,75.216v0.701c0,2.018-0.616,3.308-1.989,3.952c1.653,0.645,2.298,2.13,2.298,4.204v1.598
			c0,3.027-1.598,4.653-4.681,4.653h-4.85V70.703h4.653C121.37,70.703,122.743,72.188,122.743,75.216z M116.604,73.506v5.186h1.206
			c1.149,0,1.85-0.504,1.85-2.074v-1.093c0-1.401-0.477-2.019-1.569-2.019H116.604z M116.604,81.495v6.026h1.767
			c1.037,0,1.598-0.477,1.598-1.935v-1.71c0-1.821-0.589-2.382-1.99-2.382H116.604z"/>
		<path fill="#353435" d="M131.351,90.324c-0.168-0.505-0.28-0.812-0.28-2.41V84.83c0-1.822-0.617-2.494-2.019-2.494h-1.065v7.988
			h-3.083V70.703h4.653c3.195,0,4.568,1.485,4.568,4.513v1.542c0,2.018-0.645,3.335-2.018,3.98c1.541,0.645,2.046,2.13,2.046,4.176
			v3.027c0,0.953,0.028,1.654,0.337,2.383H131.351z M127.986,73.506v6.026h1.206c1.149,0,1.85-0.504,1.85-2.074v-1.934
			c0-1.401-0.477-2.019-1.569-2.019H127.986z"/>
		<path fill="#353435" d="M136.173,70.703h3.083v19.621h-3.083V70.703z"/>
		<path fill="#353435" d="M144.246,76.113v14.211h-2.775V70.703h3.868l3.168,11.744V70.703h2.747v19.621h-3.168L144.246,76.113z"/>
		<path fill="#353435" d="M158.095,79.393h4.316v6.223c0,3.14-1.569,4.934-4.597,4.934s-4.597-1.794-4.597-4.934V75.412
			c0-3.14,1.569-4.934,4.597-4.934s4.597,1.794,4.597,4.934v1.906h-2.915v-2.103c0-1.401-0.616-1.935-1.598-1.935
			c-0.98,0-1.598,0.533-1.598,1.935v10.596c0,1.401,0.617,1.906,1.598,1.906c0.981,0,1.598-0.505,1.598-1.906v-3.616h-1.401V79.393z
			"/>
		<path fill="#353435" d="M119.745,105.626l-3.896-13.118h3.224l2.354,8.941l2.354-8.941h2.943l-3.896,13.118v6.503h-3.083V105.626z
			"/>
		<path fill="#353435" d="M127.286,97.217c0-3.14,1.653-4.934,4.681-4.934s4.682,1.794,4.682,4.934v10.203
			c0,3.14-1.654,4.934-4.682,4.934s-4.681-1.794-4.681-4.934V97.217z M130.369,107.616c0,1.401,0.617,1.934,1.598,1.934
			c0.981,0,1.598-0.532,1.598-1.934V97.021c0-1.401-0.616-1.935-1.598-1.935c-0.98,0-1.598,0.533-1.598,1.935V107.616z"/>
		<path fill="#353435" d="M141.583,92.508v15.137c0,1.401,0.616,1.905,1.598,1.905s1.598-0.504,1.598-1.905V92.508h2.915v14.94
			c0,3.139-1.569,4.933-4.597,4.933s-4.597-1.794-4.597-4.933v-14.94H141.583z"/>
		<path fill="#353435" d="M156.244,112.129c-0.168-0.505-0.28-0.812-0.28-2.41v-3.084c0-1.822-0.617-2.494-2.019-2.494h-1.065v7.988
			h-3.083V92.508h4.653c3.195,0,4.568,1.485,4.568,4.513v1.542c0,2.018-0.645,3.335-2.018,3.98c1.542,0.645,2.046,2.13,2.046,4.176
			v3.027c0,0.953,0.028,1.654,0.337,2.383H156.244z M152.88,95.311v6.026h1.206c1.149,0,1.85-0.504,1.85-2.074v-1.934
			c0-1.401-0.477-2.019-1.569-2.019H152.88z"/>
		<path fill="#353435" d="M119.283,119.021c0-3.14,1.653-4.934,4.681-4.934s4.682,1.794,4.682,4.934v10.203
			c0,3.14-1.654,4.934-4.682,4.934s-4.681-1.794-4.681-4.934V119.021z M122.366,129.421c0,1.401,0.617,1.934,1.598,1.934
			c0.981,0,1.598-0.532,1.598-1.934v-10.596c0-1.401-0.616-1.935-1.598-1.935c-0.98,0-1.598,0.533-1.598,1.935V129.421z"/>
		<path fill="#353435" d="M137.477,123.479l-1.121,10.455h-4.233l-2.186-19.621h2.999l1.653,15.473l1.486-15.473h2.971l1.542,15.585
			l1.598-15.585h2.69l-2.187,19.621h-4.092L137.477,123.479z"/>
		<path fill="#353435" d="M149.167,119.723v14.211h-2.775v-19.621h3.868l3.168,11.744v-11.744h2.747v19.621h-3.168L149.167,119.723z
			"/>
		<path fill="#353435" d="M119.114,145.282l-1.121,10.455h-4.233l-2.186-19.621h2.999l1.653,15.473l1.486-15.473h2.971l1.542,15.585
			l1.598-15.585h2.69l-2.187,19.621h-4.092L119.114,145.282z"/>
		<path fill="#353435" d="M131.141,155.737h-3.083v-19.621h3.083v8.409h3.504v-8.409h3.14v19.621h-3.14v-8.409h-3.504V155.737z"/>
		<path fill="#353435" d="M140.028,136.116h3.083v19.621h-3.083V136.116z"/>
		<path fill="#353435" d="M144.458,136.116h9.53v2.803h-3.224v16.818h-3.084v-16.818h-3.223V136.116z"/>
		<path fill="#353435" d="M158.417,144.385h4.233v2.804h-4.233v5.746h5.326v2.803h-8.409v-19.621h8.409v2.803h-5.326V144.385z"/>
		<path fill="#353435" d="M122.76,157.921h9.53v2.803h-3.224v16.818h-3.084v-16.818h-3.223V157.921z"/>
		<path fill="#353435" d="M136.719,166.189h4.233v2.804h-4.233v5.746h5.326v2.803h-8.409v-19.621h8.409v2.803h-5.326V166.189z"/>
		<path fill="#353435" d="M147.035,166.189h4.233v2.804h-4.233v5.746h5.326v2.803h-8.409v-19.621h8.409v2.803h-5.326V166.189z"/>
	</g>
</g>
<g id="Layer_2" display="none">
	<path display="inline" fill="#353435" stroke="#FFFFFF" stroke-width="14" stroke-miterlimit="10" d="M262.387,138.111
		c-0.735,69.914-58.006,125.993-127.918,125.261C64.562,262.635,8.481,205.364,9.216,135.454
		C9.949,65.545,67.219,9.461,137.131,10.197C207.043,10.933,263.123,68.202,262.387,138.111z"/>
	<polygon display="inline" fill="#FFFFFF" points="171.929,200.38 101.498,200.38 95.566,98.2 93.221,88.13 94.438,78.77 
		92.524,45.82 180.905,45.82 179.002,78.585 180.277,88.13 177.862,98.211 	"/>
	<polygon display="inline" fill="#353435" points="169.938,194.573 103.49,194.573 97.889,98.167 95.68,88.664 96.825,79.832 
		95.021,48.746 178.408,48.746 176.611,79.662 177.815,88.664 175.537,98.178 	"/>
	<polygon display="inline" fill="#FFFFFF" points="177.938,62.273 95.438,62.273 94.588,47.979 178.787,47.979 	"/>
</g>
<g id="Layer_3" display="none">
	<path display="inline" fill="#353435" stroke="#FFFFFF" stroke-width="14" stroke-miterlimit="10" d="M262.614,137.049
		c-0.734,69.913-58.005,125.993-127.919,125.261C64.79,261.572,8.709,204.301,9.442,134.392
		C10.175,64.483,67.444,8.397,137.358,9.136C207.271,9.87,263.352,67.141,262.614,137.049z"/>
	<ellipse display="inline" fill="#F6921E" cx="151.336" cy="61.245" rx="4.108" ry="11.747"/>
	<ellipse display="inline" fill="#FFFFFF" cx="151.079" cy="93.818" rx="12.841" ry="21.412"/>
	<rect x="145.429" y="63.654" display="inline" fill="#FFFFFF" width="11.813" height="17.508"/>
	<g display="inline">
		<rect x="138.237" y="94.321" fill="#FFFFFF" width="25.683" height="78.804"/>
		<rect x="138.237" y="175.862" fill="#FFFFFF" width="25.683" height="6.509"/>
	</g>
	<ellipse display="inline" fill="#009345" cx="178.703" cy="61.245" rx="4.108" ry="11.747"/>
	<ellipse display="inline" fill="#FFFFFF" cx="178.445" cy="93.818" rx="12.843" ry="21.412"/>
	<rect x="172.795" y="63.654" display="inline" fill="#FFFFFF" width="11.815" height="17.508"/>
	<g display="inline">
		<rect x="165.602" y="94.321" fill="#FFFFFF" width="25.687" height="78.804"/>
		<rect x="165.602" y="175.862" fill="#FFFFFF" width="25.687" height="6.509"/>
	</g>
	<ellipse display="inline" fill="#00ADEE" cx="96.603" cy="61.245" rx="4.108" ry="11.747"/>
	<ellipse display="inline" fill="#FFFFFF" cx="96.343" cy="93.818" rx="12.842" ry="21.412"/>
	<rect x="90.694" y="63.654" display="inline" fill="#FFFFFF" width="11.814" height="17.508"/>
	<g display="inline">
		<rect x="83.501" y="94.321" fill="#FFFFFF" width="25.685" height="78.804"/>
		<rect x="83.501" y="175.862" fill="#FFFFFF" width="25.685" height="6.509"/>
	</g>
	<ellipse display="inline" fill="#EC1C24" cx="123.969" cy="61.245" rx="4.109" ry="11.747"/>
	<ellipse display="inline" fill="#FFFFFF" cx="123.711" cy="93.818" rx="12.842" ry="21.412"/>
	<rect x="118.062" y="63.654" display="inline" fill="#FFFFFF" width="11.812" height="17.508"/>
	<g display="inline">
		<rect x="110.869" y="94.321" fill="#FFFFFF" width="25.685" height="78.804"/>
		<rect x="110.869" y="175.862" fill="#FFFFFF" width="25.685" height="6.509"/>
	</g>
	<rect x="165.602" y="172.802" display="inline" fill="#009345" width="25.687" height="3.729"/>
	<rect x="138.237" y="172.802" display="inline" fill="#F6921E" width="25.683" height="3.729"/>
	<rect x="110.869" y="172.802" display="inline" fill="#EC1C24" width="25.685" height="3.729"/>
	<rect x="83.501" y="172.802" display="inline" fill="#00ADEE" width="25.685" height="3.729"/>
</g>
</svg>
