<?xml version="1.0" encoding="utf-8"?>
<!-- Generator: Adobe Illustrator 15.1.0, SVG Export Plug-In . SVG Version: 6.00 Build 0)  -->
<!DOCTYPE svg PUBLIC "-//W3C//DTD SVG 1.1//EN" "http://www.w3.org/Graphics/SVG/1.1/DTD/svg11.dtd">
<svg version="1.1" id="Layer_2" xmlns="http://www.w3.org/2000/svg" xmlns:xlink="http://www.w3.org/1999/xlink" x="0px" y="0px"
	 width="271.875px" height="273.438px" viewBox="0 0 271.875 273.438" enable-background="new 0 0 271.875 273.438"
	 xml:space="preserve">
<path fill="#D68005" stroke="#FFFFFF" stroke-width="14" stroke-miterlimit="10" d="M262.387,138.111
	c-0.735,69.914-58.006,125.993-127.918,125.261C64.562,262.635,8.481,205.364,9.216,135.454
	C9.949,65.545,67.219,9.461,137.131,10.197C207.043,10.933,263.123,68.202,262.387,138.111z"/>
<polygon fill="#FFFFFF" points="171.929,200.38 101.498,200.38 95.566,98.2 93.221,88.13 94.438,78.77 92.524,45.82 180.905,45.82 
	179.002,78.585 180.277,88.13 177.862,98.211 "/>
<polygon fill="#353435" points="169.938,194.573 103.49,194.573 97.889,98.167 95.68,88.664 96.825,79.832 95.021,48.746 
	178.408,48.746 176.611,79.662 177.815,88.664 175.537,98.178 "/>
<polygon fill="#FFFFFF" points="177.938,62.273 95.438,62.273 94.588,47.979 178.787,47.979 "/>
</svg>
