<?xml version="1.0" encoding="utf-8"?>
<!-- Generator: Adobe Illustrator 15.1.0, SVG Export Plug-In . SVG Version: 6.00 Build 0)  -->
<!DOCTYPE svg PUBLIC "-//W3C//DTD SVG 1.1//EN" "http://www.w3.org/Graphics/SVG/1.1/DTD/svg11.dtd">
<svg version="1.1" xmlns="http://www.w3.org/2000/svg" xmlns:xlink="http://www.w3.org/1999/xlink" x="0px" y="0px"
	 width="141.884px" height="34px" viewBox="0 0 141.884 34" enable-background="new 0 0 141.884 34" xml:space="preserve">
<g id="Layer_1">
	<path fill="#FFFFFF" d="M136.438,3.019H8.692c-3.004,0-5.446,2.44-5.446,5.442v15.695c0,3.004,2.441,5.444,5.446,5.444h127.745
		c3.01,0,5.446-2.44,5.446-5.444V8.461C141.884,5.459,139.447,3.019,136.438,3.019 M10.4,24.368c0,0.964-0.772,1.739-1.738,1.739
		c-0.959,0-1.736-0.775-1.736-1.739V8.249c0-0.961,0.777-1.737,1.736-1.737c0.966,0,1.738,0.776,1.738,1.737V24.368z
		 M138.062,24.368c0,0.964-0.781,1.739-1.742,1.739c-0.962,0-1.739-0.775-1.739-1.739V8.249c0-0.961,0.777-1.737,1.739-1.737
		c0.961,0,1.742,0.776,1.742,1.737V24.368z"/>
	<path fill="#404041" d="M29.991,23.713c0,0.403-0.097,0.473-0.473,0.473h-1.894c-0.383,0-0.468-0.069-0.468-0.473V15.25h-1.583
		c-0.379,0-0.47-0.066-0.47-0.469v-1.132c0-0.402,0.091-0.472,0.47-0.472h1.583v-0.911c0-2.448,0.891-4.213,3.564-4.213
		c0.998,0,2.714,0.358,2.714,0.805c0,0.067-0.022,0.132-0.041,0.2l-0.401,1.561c-0.026,0.089-0.111,0.221-0.204,0.221
		c-0.246,0-0.712-0.375-1.559-0.375c-1.202,0-1.239,0.732-1.239,1.802v0.911h2.533c0.201,0,0.379,0.048,0.379,0.222
		c0,0.092-0.022,0.137-0.044,0.224l-0.315,1.316c-0.064,0.288-0.2,0.311-0.423,0.311h-2.13V23.713z"/>
	<path fill="#404041" d="M41.687,24.496c-0.14,0.045-0.254,0.069-0.344,0.069c-0.283,0-0.462-0.427-0.706-1.315
		c-0.601,0.533-1.65,1.315-3.411,1.315c-1.227,0-2.895-0.56-2.895-3.256v-7.661c0-0.313,0.152-0.337,0.427-0.402l1.862-0.38
		c0.071,0,0.294-0.067,0.363-0.067c0.131,0,0.174,0.092,0.174,0.469v7.084c0,0.849,0.115,1.87,1.252,1.87
		c0.935,0,1.67-0.487,1.959-0.69v-7.883c0-0.313,0.154-0.337,0.421-0.402l1.871-0.38c0.071,0,0.292-0.067,0.382-0.067
		c0.109,0,0.155,0.092,0.155,0.469v6.95c0,3.142,0.423,2.963,0.423,3.475c0,0.111-0.09,0.199-0.246,0.248L41.687,24.496z"/>
	<path fill="#404041" d="M54.808,23.872c0,0.244-0.045,0.313-0.314,0.313h-2.201c-0.27,0-0.313-0.069-0.313-0.313v-6.861
		c0-0.846-0.11-1.872-1.249-1.872c-0.934,0-1.672,0.647-1.957,0.914v7.819c0,0.244-0.048,0.313-0.315,0.313h-2.206
		c-0.267,0-0.31-0.069-0.31-0.313v-6.728c0-3.143-0.423-2.962-0.423-3.475c0-0.115,0.089-0.201,0.246-0.246l1.688-0.558
		c0.139-0.042,0.249-0.067,0.334-0.067c0.293,0,0.472,0.493,0.717,1.541c0.649-0.581,1.649-1.541,3.407-1.541
		c1.226,0,2.895,0.559,2.895,3.253V23.872z"/>
	<path fill="#404041" d="M64.672,24.475c-0.085,0.021-0.205,0.091-0.29,0.091c-0.198,0-0.533-0.782-0.648-1.34
		c-0.357,0.336-1.33,1.34-2.942,1.34c-2.532,0-3.808-2.052-3.808-5.438c0-4.209,1.518-6.327,4.279-6.327
		c1.204,0,1.715,0.426,2.074,0.669V8.905c0-0.336,0.149-0.336,0.423-0.403l1.868-0.38c0.066,0,0.27-0.069,0.309-0.069
		c0.185,0,0.226,0.092,0.226,0.47v12.162c0,2.16,0.401,2.451,0.401,2.896c0,0.09-0.088,0.156-0.203,0.201L64.672,24.475z
		 M63.337,15.475c-0.202-0.111-0.578-0.445-1.52-0.445c-1.671,0-1.999,1.247-1.999,3.72c0,2.518,0.421,3.586,1.868,3.586
		c1.001,0,1.383-0.493,1.651-0.782V15.475z"/>
	<path fill="#404041" d="M71.702,23.872c0,0.244-0.042,0.313-0.311,0.313h-2.206c-0.267,0-0.314-0.069-0.314-0.313v-6.728
		c0-2.45-0.575-2.852-0.575-3.363c0-0.091,0.088-0.158,0.2-0.201l1.693-0.688c0.088-0.025,0.198-0.092,0.289-0.092
		c0.269,0,0.71,1.005,0.823,1.762c0.421-0.512,1.248-1.762,2.764-1.762c0.644,0,1.294,0.225,1.294,0.512
		c0,0.087-0.025,0.179-0.049,0.224l-0.692,1.872c-0.021,0.067-0.089,0.199-0.175,0.199c-0.135,0-0.531-0.243-1.047-0.243
		c-0.693,0-1.404,0.756-1.694,1.067V23.872z"/>
	<path fill="#404041" d="M83.088,24.475c-0.086,0.021-0.199,0.091-0.287,0.091c-0.201,0-0.536-0.782-0.648-1.34
		c-0.443,0.446-1.229,1.34-2.895,1.34c-2.048,0-3.34-1.34-3.34-3.431c0-3.767,4.052-3.767,5.812-3.767v-0.692
		c0-1-0.178-1.646-1.583-1.646c-1.244,0-2.471,0.667-2.761,0.667c-0.109,0-0.2-0.134-0.22-0.223l-0.446-1.359
		c-0.047-0.091-0.068-0.18-0.068-0.268c0-0.516,2.203-1.049,3.924-1.049c2.779,0,3.83,1.271,3.83,3.589v4.296
		c0,2.16,0.577,2.451,0.577,2.896c0,0.09-0.091,0.156-0.198,0.201L83.088,24.475z M81.73,19.193c-0.552,0-3.137-0.176-3.137,1.783
		c0,0.866,0.621,1.518,1.465,1.518c0.826,0,1.409-0.584,1.672-0.851V19.193z"/>
	<path fill="#404041" d="M90.761,23.872c0,0.244-0.049,0.313-0.317,0.313h-2.205c-0.266,0-0.312-0.069-0.312-0.313V15.25h-1.716
		c-0.262,0-0.311-0.066-0.311-0.311v-1.448c0-0.244,0.049-0.311,0.311-0.311h4.232c0.269,0,0.317,0.067,0.317,0.311V23.872z
		 M89.334,11.73c-1.025,0-1.85-0.824-1.85-1.847c0-1.025,0.824-1.83,1.85-1.83c1.004,0,1.826,0.805,1.826,1.83
		C91.16,10.906,90.338,11.73,89.334,11.73"/>
	<path fill="#404041" d="M99.862,15.408c-0.04,0.111-0.155,0.199-0.176,0.199c-0.067,0-1.157-0.577-2.585-0.577
		c-0.848,0-1.475,0.312-1.475,1.066c0,1.205,2.009,1.115,3.595,2.161c0.866,0.582,1.487,1.428,1.487,2.717
		c0,2.053-1.445,3.591-3.807,3.591c-1.646,0-4.19-0.853-4.19-1.45c0-0.066,0.095-0.2,0.117-0.291l0.481-1.271
		c0.051-0.11,0.096-0.199,0.184-0.199c0.086,0,1.807,0.981,3.184,0.981c0.739,0,1.361-0.312,1.361-1.115
		c0-1.291-2.182-1.291-3.655-2.271c-0.665-0.447-1.315-1.225-1.315-2.518c0-2.026,1.536-3.632,3.948-3.632
		c1.36,0,3.472,0.58,3.472,1.094c0,0.066-0.063,0.201-0.113,0.289L99.862,15.408z"/>
	<path fill="#404041" d="M111.031,23.003c0.045,0.065,0.07,0.156,0.07,0.247c0,0.577-2.232,1.315-3.988,1.315
		c-2.941,0-4.991-1.675-4.991-5.772c0-3.543,1.896-5.993,4.878-5.993c3.789,0,4.455,3.389,4.455,6.083
		c0,0.424-0.092,0.558-0.514,0.558h-5.99c0,1.245,0.359,2.782,2.447,2.782c1.607,0,2.518-0.732,2.828-0.732
		c0.113,0,0.203,0.088,0.248,0.176L111.031,23.003z M108.446,17.368c0-0.917-0.062-2.494-1.603-2.494
		c-1.736,0-1.826,1.869-1.893,2.494H108.446z"/>
	<path fill="#404041" d="M116.371,23.872c0,0.244-0.041,0.313-0.308,0.313h-2.204c-0.268,0-0.316-0.069-0.316-0.313v-6.728
		c0-2.45-0.578-2.852-0.578-3.363c0-0.091,0.09-0.158,0.201-0.201l1.693-0.688c0.088-0.025,0.199-0.092,0.293-0.092
		c0.265,0,0.707,1.005,0.82,1.762c0.423-0.512,1.242-1.762,2.76-1.762c0.648,0,1.297,0.225,1.297,0.512
		c0,0.087-0.024,0.179-0.041,0.224l-0.698,1.872c-0.022,0.067-0.091,0.199-0.176,0.199c-0.136,0-0.537-0.243-1.052-0.243
		c-0.688,0-1.399,0.756-1.691,1.067V23.872z"/>
</g>
<g id="Layer_2" display="none">
	<g display="inline">
		<g>
			<path fill="#FFFFFF" d="M85.353,16.674v14.26h9.903l0.007-14.26c0-3.439-0.929-6.469-2.124-8.203
				c-1.816-2.651-4.83-4.175-8.993-4.445c-3.489-0.215-5.729,1.177-7.634,2.308v-1.84h-9.871L66.64,16.676l9.872-0.002
				C76.506,10.108,85.342,10.093,85.353,16.674z"/>
		</g>
		<g>
			<path fill="#FFFFFF" d="M57.81,18.764V4.503h-9.897l-0.008,14.261c0,3.438,0.924,6.467,2.12,8.201
				c1.823,2.652,4.828,4.174,8.995,4.443c3.492,0.215,5.734-1.174,7.632-2.303v1.838h9.871l0.004-12.184l-9.875,0.004
				C66.656,25.328,57.823,25.342,57.81,18.764z"/>
		</g>
	</g>
</g>
<g id="Layer_3" display="none">
	<g display="inline">
		<path fill="#FFFFFF" d="M127.076,17.206c-0.107-4.406-3.708-7.412-8.234-6.784c-3.801,0.544-7.022,4.383-5.715,8.91
			c1.059,3.662,5.542,6.173,9.592,4.553C125.096,22.916,127.131,20.344,127.076,17.206 M127.744,27.66
			c-2.426,1.562-4.884,3.117-9.105,2.705c-6.389-0.61-11.226-6.232-11.226-13.159c0.02-7.294,5.137-12.036,11.624-12.956h1.941
			c2.221,0.299,4.316,1.047,5.803,2.021C133.402,10.596,134.658,22.309,127.744,27.66"/>
		<path fill="#FFFFFF" d="M80.801,30.764c0.27-5.516-0.357-10.686,0-15.203c0.494-6.509,6.118-11.51,13.648-10.847
			c5.666,0.512,10.273,5.171,10.736,10.742c0.42,4.845-0.291,9.863,0,15.308h-5.607c-0.626-4.913,0.998-12.315-0.385-16.369
			c-1.057-3.089-5.443-5.235-9.484-3.096c-1.697,0.906-3.136,2.668-3.381,5.025c-0.449,4.089,0.318,9.88,0,14.439H80.801z"/>
		<path fill="#FFFFFF" d="M58.924,17.303c0,7.555,9.888,9.156,13.16,3.778c1.598-2.62,0.949-6.57-0.757-8.518
			c-1.29-1.453-3.707-2.485-6.397-2.142c-2.234,0.3-3.898,1.531-4.837,2.92C59.809,13.764,58.924,15.478,58.924,17.303
			 M56.792,26.204c-1.878-2.118-3.29-5.323-3.287-8.901C53.542,9.808,58.55,5.26,65.03,4.239h1.938
			c2.44,0.348,4.687,1.136,6.382,2.421c2.545,1.893,4.794,5.016,5.132,9.286c0.572,7.548-4.49,13.925-11.32,14.429
			C62.331,30.716,59.005,28.672,56.792,26.204"/>
		<path fill="#FFFFFF" d="M24.454,11.299c-4.707-2.561-9.91,0.677-10.333,5.225c-0.396,4.182,0.27,9.748,0,14.24H8.604v-15.11
			C9.1,10.051,13.745,5.178,19.631,4.714c4.544-0.356,8.429,1.731,10.644,4.149c2.426-2.527,5.711-4.592,10.742-4.149
			c2.08,0.185,3.989,1.026,5.42,1.946c2.783,1.773,5.153,5.18,5.327,9.375c0.169,4.279-0.111,9.338,0,14.729h-5.618
			c-0.29-5.016,0.407-9.824,0-14.521c-0.305-3.746-3.227-6.146-7.453-5.709c-2.631,0.264-5.386,2.531-5.705,5.216
			c-0.537,4.612,0.402,10.066,0,15.015H27.37C26.704,23.771,29.317,13.953,24.454,11.299"/>
	</g>
</g>
</svg>
