<?xml version="1.0" encoding="utf-8"?>
<!-- Generator: Adobe Illustrator 15.1.0, SVG Export Plug-In . SVG Version: 6.00 Build 0)  -->
<!DOCTYPE svg PUBLIC "-//W3C//DTD SVG 1.1//EN" "http://www.w3.org/Graphics/SVG/1.1/DTD/svg11.dtd">
<svg version="1.1" xmlns="http://www.w3.org/2000/svg" xmlns:xlink="http://www.w3.org/1999/xlink" x="0px" y="0px"
	 width="271.875px" height="273.438px" viewBox="0 0 271.875 273.438" enable-background="new 0 0 271.875 273.438"
	 xml:space="preserve">
<g id="Layer_3">
	<path fill="#353435" stroke="#FFFFFF" stroke-width="14" stroke-miterlimit="10" d="M262.614,137.049
		c-0.734,69.913-58.005,125.993-127.919,125.261C64.79,261.572,8.709,204.301,9.442,134.392
		C10.175,64.483,67.444,8.397,137.358,9.136C207.271,9.87,263.352,67.141,262.614,137.049z"/>
	<ellipse fill="#F6921E" cx="151.336" cy="61.245" rx="4.108" ry="11.747"/>
	<ellipse fill="#FFFFFF" cx="151.079" cy="93.818" rx="12.841" ry="21.412"/>
	<rect x="145.429" y="63.654" fill="#FFFFFF" width="11.813" height="17.508"/>
	<g>
		<rect x="138.237" y="94.321" fill="#FFFFFF" width="25.683" height="78.804"/>
		<rect x="138.237" y="175.862" fill="#FFFFFF" width="25.683" height="6.509"/>
	</g>
	<ellipse fill="#009345" cx="178.703" cy="61.245" rx="4.108" ry="11.747"/>
	<ellipse fill="#FFFFFF" cx="178.445" cy="93.818" rx="12.843" ry="21.412"/>
	<rect x="172.795" y="63.654" fill="#FFFFFF" width="11.815" height="17.508"/>
	<g>
		<rect x="165.602" y="94.321" fill="#FFFFFF" width="25.687" height="78.804"/>
		<rect x="165.602" y="175.862" fill="#FFFFFF" width="25.687" height="6.509"/>
	</g>
	<ellipse fill="#00ADEE" cx="96.603" cy="61.245" rx="4.108" ry="11.747"/>
	<ellipse fill="#FFFFFF" cx="96.343" cy="93.818" rx="12.842" ry="21.412"/>
	<rect x="90.694" y="63.654" fill="#FFFFFF" width="11.814" height="17.508"/>
	<g>
		<rect x="83.501" y="94.321" fill="#FFFFFF" width="25.685" height="78.804"/>
		<rect x="83.501" y="175.862" fill="#FFFFFF" width="25.685" height="6.509"/>
	</g>
	<ellipse fill="#EC1C24" cx="123.969" cy="61.245" rx="4.109" ry="11.747"/>
	<ellipse fill="#FFFFFF" cx="123.711" cy="93.818" rx="12.842" ry="21.412"/>
	<rect x="118.062" y="63.654" fill="#FFFFFF" width="11.812" height="17.508"/>
	<g>
		<rect x="110.869" y="94.321" fill="#FFFFFF" width="25.685" height="78.804"/>
		<rect x="110.869" y="175.862" fill="#FFFFFF" width="25.685" height="6.509"/>
	</g>
	<rect x="165.602" y="172.802" fill="#009345" width="25.687" height="3.729"/>
	<rect x="138.237" y="172.802" fill="#F6921E" width="25.683" height="3.729"/>
	<rect x="110.869" y="172.802" fill="#EC1C24" width="25.685" height="3.729"/>
	<rect x="83.501" y="172.802" fill="#00ADEE" width="25.685" height="3.729"/>
</g>
</svg>
