<?xml version="1.0" encoding="utf-8"?>
<!-- Generator: Adobe Illustrator 15.1.0, SVG Export Plug-In . SVG Version: 6.00 Build 0)  -->
<!DOCTYPE svg PUBLIC "-//W3C//DTD SVG 1.1//EN" "http://www.w3.org/Graphics/SVG/1.1/DTD/svg11.dtd">
<svg version="1.1" xmlns="http://www.w3.org/2000/svg" xmlns:xlink="http://www.w3.org/1999/xlink" x="0px" y="0px"
	 width="271.875px" height="273.438px" viewBox="0 0 271.875 273.438" enable-background="new 0 0 271.875 273.438"
	 xml:space="preserve">
<g id="Layer_1" display="none">
	<path display="inline" fill="#353435" stroke="#FFFFFF" stroke-width="14" stroke-miterlimit="10" d="M263.688,138.131
		c-0.732,69.915-58.006,125.993-127.917,125.262C65.864,262.651,9.786,205.384,10.519,135.474
		C11.252,65.564,68.522,9.48,138.434,10.216S264.426,68.223,263.688,138.131z"/>
	<g id="XMLID_2_" display="inline">
		<g>
			<path fill="#FFFFFF" d="M212.865,89.532c0.198,1.702-2.737,4.989-3.662,6.436c-3.975,6.195-7.809,12.21-12.054,18.023
				c-5.119-0.444-9.861-1.247-14.72-1.956c-0.502,25.343-0.062,51.733-1.162,76.735c-28.259,0.3-59.088-0.017-87.521-0.913
				c-0.578-24.729,0.412-50.979,0.445-76.388c-2.496,0.063-4.878,0.351-7.558,0.641c-2.35,0.252-5.406,1.324-7.558,0.816
				c-1.517-0.345-3.307-3.975-4.435-5.791c-2.92-4.704-4.936-7.993-7.775-12.487c-0.774-1.23-3.73-5.09-3.711-6.324
				c0.023-1.366,2.445-2.627,3.819-3.742c8.555-6.945,16.1-13.279,24.653-20.231c1.376-1.111,2.984-2.66,4.175-3.193
				c2.08-0.933,4.777-1.221,7.204-1.898c6.686-1.864,14.629-3.98,20.914-5.893c0.252-0.075,0.438-0.191,0.719-0.16
				c3.875,0.292,8.771,1.873,14.001,1.937c2.471,0.021,4.969-0.136,7.366-0.462c2.384-0.329,4.759-1.272,6.669-1.188
				c2.114,0.087,4.745,1.517,6.987,2.23c4.854,1.539,9.033,2.967,13.786,4.458c2.481,0.775,5.161,1.152,6.988,2.045
				c1.213,0.583,2.652,2.268,4.102,3.457c8.244,6.839,16.115,13.302,24.591,20.216C210.412,86.943,212.75,88.56,212.865,89.532z"/>
		</g>
		<g>
		</g>
	</g>
	<polygon display="inline" fill="#231F20" points="156.651,113.846 156.013,113.836 156.019,113.721 156.651,113.727 	"/>
	
		<rect x="160.135" y="113.769" transform="matrix(1 0.0092 -0.0092 1 1.051 -1.4672)" display="inline" fill="#231F20" width="0.639" height="0.116"/>
	<rect x="98.257" y="70.7" display="inline" fill="none" width="79.169" height="191.569"/>
	<text transform="matrix(1 0 0 1 112.4004 90.3242)" display="inline"><tspan x="0" y="0" fill="#353435" font-family="'BebasNeue'" font-size="28.0344">bring </tspan><tspan x="3.126" y="21.805" fill="#353435" font-family="'BebasNeue'" font-size="28.0344">your </tspan><tspan x="6.014" y="43.609" fill="#353435" font-family="'BebasNeue'" font-size="28.0344">own </tspan><tspan x="-1.247" y="65.413" fill="#353435" font-family="'BebasNeue'" font-size="28.0344">white </tspan><tspan x="10.135" y="87.218" fill="#353435" font-family="'BebasNeue'" font-size="28.0344">tee</tspan></text>
</g>
<g id="Layer_2" display="none">
	<path display="inline" fill="#353435" stroke="#FFFFFF" stroke-width="14" stroke-miterlimit="10" d="M262.387,138.111
		c-0.735,69.914-58.006,125.993-127.918,125.261C64.562,262.635,8.481,205.364,9.216,135.454
		C9.949,65.545,67.219,9.461,137.131,10.197C207.043,10.933,263.123,68.202,262.387,138.111z"/>
	<polygon display="inline" fill="#FFFFFF" points="171.929,200.38 101.498,200.38 95.566,98.2 93.221,88.13 94.438,78.77 
		92.524,45.82 180.905,45.82 179.002,78.585 180.277,88.13 177.862,98.211 	"/>
	<polygon display="inline" fill="#353435" points="169.938,194.573 103.49,194.573 97.889,98.167 95.68,88.664 96.825,79.832 
		95.021,48.746 178.408,48.746 176.611,79.662 177.815,88.664 175.537,98.178 	"/>
	<polygon display="inline" fill="#FFFFFF" points="177.938,62.273 95.438,62.273 94.588,47.979 178.787,47.979 	"/>
</g>
<g id="Layer_3">
	<path fill="#353435" stroke="#FFFFFF" stroke-width="14" stroke-miterlimit="10" d="M261.614,137.049
		c-0.734,69.913-58.005,125.993-127.919,125.261C63.79,261.572,7.709,204.301,8.442,134.392
		C9.175,64.483,66.444,8.397,136.358,9.136C206.271,9.87,262.352,67.141,261.614,137.049z"/>
	<ellipse fill="#F6921E" cx="150.336" cy="61.245" rx="4.108" ry="11.747"/>
	<ellipse fill="#FFFFFF" cx="150.079" cy="93.818" rx="12.841" ry="21.412"/>
	<rect x="144.429" y="63.654" fill="#FFFFFF" width="11.813" height="17.508"/>
	<g>
		<rect x="137.237" y="94.321" fill="#FFFFFF" width="25.683" height="78.804"/>
		<rect x="137.237" y="175.862" fill="#FFFFFF" width="25.683" height="6.509"/>
	</g>
	<ellipse fill="#009345" cx="177.703" cy="61.245" rx="4.108" ry="11.747"/>
	<ellipse fill="#FFFFFF" cx="177.445" cy="93.818" rx="12.843" ry="21.412"/>
	<rect x="171.795" y="63.654" fill="#FFFFFF" width="11.815" height="17.508"/>
	<g>
		<rect x="164.602" y="94.321" fill="#FFFFFF" width="25.687" height="78.804"/>
		<rect x="164.602" y="175.862" fill="#FFFFFF" width="25.687" height="6.509"/>
	</g>
	<ellipse fill="#00ADEE" cx="95.603" cy="61.245" rx="4.108" ry="11.747"/>
	<ellipse fill="#FFFFFF" cx="95.343" cy="93.818" rx="12.842" ry="21.412"/>
	<rect x="89.694" y="63.654" fill="#FFFFFF" width="11.814" height="17.508"/>
	<g>
		<rect x="82.501" y="94.321" fill="#FFFFFF" width="25.685" height="78.804"/>
		<rect x="82.501" y="175.862" fill="#FFFFFF" width="25.685" height="6.509"/>
	</g>
	<ellipse fill="#EC1C24" cx="122.969" cy="61.245" rx="4.109" ry="11.747"/>
	<ellipse fill="#FFFFFF" cx="122.711" cy="93.818" rx="12.842" ry="21.412"/>
	<rect x="117.062" y="63.654" fill="#FFFFFF" width="11.812" height="17.508"/>
	<g>
		<rect x="109.869" y="94.321" fill="#FFFFFF" width="25.685" height="78.804"/>
		<rect x="109.869" y="175.862" fill="#FFFFFF" width="25.685" height="6.509"/>
	</g>
</g>
</svg>
