<?xml version="1.0" encoding="utf-8"?>
<!-- Generator: Adobe Illustrator 15.1.0, SVG Export Plug-In . SVG Version: 6.00 Build 0)  -->
<!DOCTYPE svg PUBLIC "-//W3C//DTD SVG 1.1//EN" "http://www.w3.org/Graphics/SVG/1.1/DTD/svg11.dtd">
<svg version="1.1" id="Layer_1" xmlns="http://www.w3.org/2000/svg" xmlns:xlink="http://www.w3.org/1999/xlink" x="0px" y="0px"
	 width="349.679px" height="367.334px" viewBox="8.292 0 349.679 367.334" enable-background="new 8.292 0 349.679 367.334"
	 xml:space="preserve">
<polygon fill="#FFFFFF" points="357.971,298.397 182.889,362.67 8.292,298.397 8.292,4.286 183.304,69.417 357.971,4.286 "/>
<g>
	<g>
		<path fill="#0C0C0C" d="M38.927,157.973c7.563-17.685,15.217-35.044,22.945-52.074c1.985-0.857,3.975-1.693,5.969-2.508
			c-3.586,7.819-7.156,15.71-10.71,23.67c3.811,2.754,12.305-1.172,17.053-11.337c10.636-22.744-12.929-23.387-21.661-2.908
			c-2.1,4.863-2.665,8.429-2.666,8.427c-1.341,0.431-2.679,0.871-4.014,1.322c0,0.002,0.394-4.722,2.768-10.165
			c11.53-27.216,43.244-23.896,30.495,3.305c-6.745,14.225-18.348,18.062-23.513,14.694c-3.606,8.105-7.195,16.282-10.765,24.531
			C42.855,155.922,40.888,156.937,38.927,157.973z"/>
		<path fill="#0C0C0C" d="M90.812,123.323c0.818,0.091,1.871,0.7,2.281,1.395c-5.034,7.424-10.802,14.786-15.782,16.64
			c-4.864,1.819-6.645-1.609-4.107-7.127c6.469-13.885,12.984-27.542,19.538-40.968c2.028-0.632,4.061-1.244,6.097-1.832
			c-6.85,13.89-13.662,28.031-20.426,42.422c-1.391,2.918-0.638,3.576,0.696,3.089c2.667-0.975,6.911-6.512,11.294-13.018
			C90.54,123.724,90.676,123.524,90.812,123.323z"/>
		<path fill="#0C0C0C" d="M119.731,115.647c0.83,0.176,1.898,0.894,2.313,1.63c-5.104,6.903-10.96,13.667-16.028,15.003
			c-3.124,0.822-5.003-0.281-5.297-2.547c-2.939,3.232-5.987,5.732-8.444,6.504c-4.912,1.556-6.712-1.97-4.148-7.35
			c2.84-5.864,5.688-11.684,8.542-17.459c2.579-5.234,7.164-9.104,10.467-9.948c4.011-1.035,6.674,1.94,6.438,4.574
			c1.163-0.273,2.327-0.539,3.492-0.798c-3.317,6.487-6.627,13.032-9.93,19.635c-1.414,2.773-0.647,3.51,0.708,3.162
			c2.713-0.698,7.027-5.795,11.473-11.847C119.454,116.019,119.592,115.833,119.731,115.647z M93.387,128.793
			c-1.405,2.843-0.645,3.542,0.703,3.127c2.517-0.775,6.155-4.604,9.864-11.411c1.589-3.207,3.182-6.399,4.775-9.579
			c3.01-6.274-3.543-6.109-6.834,0.521C99.052,117.189,96.216,122.97,93.387,128.793z"/>
		<path fill="#0C0C0C" d="M135.014,112.817c0.834,0.22,1.908,0.995,2.325,1.754c-5.129,6.628-11.02,13.077-16.122,14.141
			c-4.981,1.047-6.812-2.665-4.208-7.78c4.126-7.997,8.263-15.904,12.407-23.72c2.063-0.367,4.127-0.712,6.194-1.034
			c-4.431,8.298-8.854,16.7-13.266,25.204c-1.424,2.698-0.653,3.475,0.712,3.2c2.73-0.551,7.07-5.416,11.54-11.229
			C134.735,113.174,134.875,112.996,135.014,112.817z M136.385,85.851c2.027-0.311,3.639,1.05,3.639,3.044
			c0,1.995-1.612,3.743-3.639,4.054c-2.027,0.31-3.576-0.955-3.576-2.951C132.809,88.005,134.357,86.161,136.385,85.851z"/>
		<path fill="#0C0C0C" d="M164.378,109.695c0.839,0.306,1.918,1.191,2.338,1.993c-5.157,6.103-11.089,11.945-16.234,12.484
			c-5.023,0.534-6.875-3.366-4.245-8.212c2.689-4.914,5.382-9.791,8.076-14.629c2.697-4.718-1.563-6.02-11.063,6.844
			c-3.166,5.825-6.328,11.702-9.485,17.632c-2.085,0.339-4.169,0.7-6.25,1.085c5.728-10.836,11.473-21.5,17.229-31.99
			c2.071-0.256,4.144-0.489,6.218-0.7c-0.777,1.409-1.555,2.821-2.333,4.236c3.11-3.51,5.924-5.179,8.618-5.394
			c3.474-0.274,6.052,2.924,3.355,7.731c-2.996,5.348-5.99,10.742-8.982,16.184c-1.436,2.551-0.659,3.408,0.718,3.273
			c2.752-0.27,7.125-4.689,11.621-10.043C164.098,110.024,164.238,109.859,164.378,109.695z"/>
		<path fill="#0C0C0C" d="M228.572,117.44c-7.08,10.911-19.52,8.803-20.84,1.936c-9.277,8.839-18.1,1.889-12.641-7.149
			c5.316-8.8,10.627-17.453,15.931-25.959c-8.011,2.955-21.866,3.351-21.867,11.045c0,2.987,3.3,4.399,3.3,4.404
			c-0.781,1.277-1.561,2.558-2.34,3.841c-3.058-1.285-6.418-4.257-6.418-8.48c0-12.626,19.504-10.958,31.271-17.048
			c1.057,1.908,2.111,3.821,3.166,5.741c-5.891,9.253-11.797,18.688-17.707,28.306c-4.196,6.843,1.082,10.135,8.861-1.178
			c6.203-9.913,12.395-19.626,18.567-29.138c2.065,0.344,4.128,0.71,6.188,1.099c-6.936,10.602-13.896,21.457-20.869,32.566
			c-2.989,4.826,3.889,6.974,9.078-1.101c5.488-8.543,10.963-16.928,16.422-25.156c7.248-10.889,17.095-3.803,18.385,1.511
			c-1.354,0.375-2.71,0.759-4.066,1.153c-1.768-4.45-5.783-4.799-9.219,0.307C238.722,101.772,233.652,109.539,228.572,117.44z"/>
		<path fill="#0C0C0C" d="M267.569,122.678c0.819,0.607,1.873,1.88,2.281,2.833c-5.024,4.252-10.837,7.962-15.907,6.647
			c-4.953-1.277-6.79-5.847-4.189-9.744c2.658-3.944,5.312-7.85,7.959-11.718c2.643-3.749-1.514-6.581-10.973,2.958
			c-3.115,4.647-6.236,9.346-9.363,14.097c-2.078-0.417-4.157-0.811-6.24-1.182c8.23-12.613,16.428-24.87,24.574-36.773
			c2.043,0.545,4.08,1.113,6.115,1.704c-3.248,4.71-6.506,9.477-9.771,14.3c3.067-2.39,5.894-3.089,8.538-2.334
			c3.404,0.975,5.924,5.1,3.285,8.937c-2.933,4.271-5.871,8.588-8.816,12.951c-1.413,2.034-0.646,3.171,0.706,3.532
			c2.711,0.721,7.003-2.125,11.394-5.865C267.298,122.906,267.434,122.792,267.569,122.678z"/>
		<path fill="#0C0C0C" d="M282.541,127.767c0.812,0.651,1.854,1.98,2.26,2.955c-4.975,3.982-10.735,7.381-15.766,5.793
			c-4.912-1.542-6.736-6.21-4.154-9.968c4.082-5.849,8.15-11.609,12.203-17.28c2.018,0.701,4.028,1.424,6.037,2.169
			c-4.306,6.01-8.632,12.122-12.975,18.335c-1.402,1.958-0.643,3.136,0.701,3.57c2.688,0.866,6.941-1.749,11.289-5.254
			C282.271,127.98,282.408,127.874,282.541,127.767z M283.875,101.508c1.969,0.736,3.526,2.928,3.526,4.921
			c0,1.996-1.56,2.913-3.526,2.177c-1.97-0.736-3.479-2.802-3.479-4.797C280.396,101.816,281.905,100.772,283.875,101.508z"/>
		<path fill="#0C0C0C" d="M288.21,110.441c1.81,0.707,3.613,1.432,5.414,2.174c1.877-2.551,3.752-5.082,5.619-7.593
			c1.984,0.862,3.963,1.747,5.937,2.653c-1.859,2.47-3.726,4.961-5.593,7.47c1.641,0.715,3.276,1.445,4.908,2.19
			c-0.568,0.718-1.139,1.438-1.709,2.16c-1.615-0.727-3.236-1.438-4.859-2.136c-4.258,5.779-8.537,11.658-12.836,17.638
			c-1.389,1.882-0.637,3.101,0.693,3.607c2.659,1.011,6.87-1.376,11.17-4.646c0.133-0.1,0.268-0.199,0.4-0.299
			c0.802,0.695,1.832,2.08,2.232,3.077c-4.918,3.714-10.617,6.803-15.599,4.945c-4.864-1.806-6.675-6.572-4.116-10.191
			c4.047-5.63,8.074-11.171,12.084-16.624c-1.822-0.74-3.648-1.46-5.479-2.164C287.056,111.947,287.634,111.193,288.21,110.441z"/>
		<path fill="#0C0C0C" d="M302.617,137.255c-0.191,0.267-0.382,0.533-0.57,0.8c-2.744,3.72-0.566,7.003,3.078,8.668
			c4.158,1.898,9.588,0.496,13.799-2.42c0.131-0.089,0.263-0.177,0.394-0.266c0.787,0.76,1.796,2.229,2.188,3.258
			c-4.816,3.315-11.418,5.411-18.147,2.379c-7.019-3.142-10.253-10.39-6.519-15.354c2.084-2.771,4.162-5.519,6.232-8.242
			c2.51-3.328,6.323-4.157,11.064-1.803c4.796,2.392,7.814,8.238,4.675,12.226c-0.28,0.363-0.562,0.727-0.843,1.091
			C313.589,143.236,306.445,140.587,302.617,137.255z M304.326,135.036c2.225,1.828,6.027,3.736,8.852,0.148
			c0.283-0.37,0.564-0.738,0.848-1.107c3.498-4.59-2.477-8.594-5.889-4.139C306.869,131.628,305.6,133.328,304.326,135.036z"/>
	</g>
</g>
<g>
	<g>
		<path fill="#0C0C0C" d="M59.913,165.247c18.097-7.74,36.751-13.683,55.705-17.83c0.046,6.397,0.093,12.795,0.14,19.193
			c-6.408,1.205-12.787,2.586-19.128,4.144c0.264,37.022,0.527,74.046,0.791,111.071c-6.113,0.02-12.226,0.041-18.338,0.064
			c-0.178-35.395-0.357-70.789-0.535-106.183c-6.26,1.895-12.474,3.967-18.633,6.215C59.913,176.364,59.913,170.805,59.913,165.247z
			"/>
		<path fill="#0C0C0C" d="M144.197,201.219c8.467-0.614,16.955-1.022,25.448-1.224c0.012,6.724,0.024,13.447,0.036,20.171
			c-8.469,0.153-16.934,0.462-25.383,0.928c0.069,13.582,0.139,27.164,0.208,40.745c10.585-0.201,21.179-0.318,31.774-0.35
			c0.006,6.732,0.011,13.466,0.017,20.199c-16.679,0.004-33.357,0.022-50.034,0.059c-0.308-45.432-0.617-90.863-0.925-136.295
			c16.807-3.119,33.813-4.839,50.839-5.161c0.006,6.733,0.011,13.466,0.017,20.2c-10.752,0.175-21.497,0.832-32.196,1.97
			C144.064,175.38,144.131,188.299,144.197,201.219z"/>
		<path fill="#0C0C0C" d="M207.947,200.487c8.483,0.421,16.952,1.048,25.396,1.882c-0.043,6.532-0.084,13.063-0.127,19.597
			c-8.43-0.632-16.881-1.105-25.342-1.425c-0.051,13.702-0.102,27.403-0.15,41.106c10.59,0.139,21.175,0.362,31.747,0.672
			c-0.046,6.478-0.089,12.953-0.134,19.431c-16.676-0.036-33.354-0.058-50.033-0.062c0.05-47.121,0.101-94.242,0.15-141.364
			c17.024,0.405,34.023,2.209,50.818,5.412c-0.045,6.477-0.089,12.954-0.134,19.431c-10.626-1.742-21.322-3.002-32.05-3.78
			C208.042,174.42,207.996,187.454,207.947,200.487z"/>
		<path fill="#0C0C0C" d="M277.814,153.908c17.496,6.041,26.169,20.919,26.213,39.301c-0.001,1.224-0.001,2.447-0.001,3.671
			c-5.603-1.729-11.241-3.337-16.915-4.82c0.01-1.703,0.018-3.406,0.023-5.107c0.039-8.776-3.197-13.181-8.94-14.832
			c-5.747-1.636-9.085,1.06-9.147,10.296c-0.111,26.642,35.158,38.668,35.143,71.542c0.023,18.456-9.318,29.137-27.348,29.348
			c-18.01,0.144-27.254-12.127-27.1-33.668c0.021-2.742,0.04-5.484,0.061-8.227c5.783,0.404,11.56,0.859,17.322,1.369
			c-0.021,3.084-0.043,6.168-0.064,9.252c-0.066,9.275,3.572,12.744,9.396,12.99c5.823,0.244,9.494-2.754,9.535-11.557
			c0.154-25.181-35.457-34.974-35.238-73.378C250.888,158.654,260.259,148.108,277.814,153.908z"/>
	</g>
</g>
<g>
	<polygon fill="#FFFFFF" points="129.667,5.975 118.027,5.975 118.027,41.399 129.667,44.839 	"/>
	<polygon fill="#FFFFFF" points="81.787,5.975 70.125,5.975 70.125,23.766 81.787,28.059 	"/>
	<polygon fill="#FFFFFF" points="177.583,5.975 165.771,5.975 165.771,58.129 177.583,62.479 	"/>
	<polygon fill="#FFFFFF" points="201.444,5.975 189.804,5.975 189.804,62.033 201.444,57.759 	"/>
	<polygon fill="#FFFFFF" points="46.265,14.982 57.904,19.268 57.904,5.975 46.265,5.975 	"/>
	<polygon fill="#FFFFFF" points="105.807,5.975 94.008,5.975 94.008,32.558 105.807,36.901 	"/>
	<polygon fill="#FFFFFF" points="153.549,5.975 141.888,5.975 141.888,49.338 153.549,53.631 	"/>
	<polygon fill="#FFFFFF" points="320.707,5.975 309.31,5.975 309.31,19.007 320.707,14.823 	"/>
	<polygon fill="#FFFFFF" points="332.925,5.975 332.925,10.338 344.812,5.975 	"/>
	<polygon fill="#FFFFFF" points="34.043,5.975 21.794,5.975 34.043,10.484 	"/>
	<polygon fill="#FFFFFF" points="297.089,5.975 285.425,5.975 285.425,27.774 297.089,23.493 	"/>
	<polygon fill="#FFFFFF" points="249.347,5.975 237.548,5.975 237.548,44.506 249.347,41.019 	"/>
	<polygon fill="#FFFFFF" points="225.326,5.975 213.666,5.975 213.666,53.273 225.326,48.992 	"/>
	<polygon fill="#FFFFFF" points="273.207,5.975 261.566,5.975 261.566,36.533 273.207,32.26 	"/>
</g>
<polygon fill="#0C0C0C" points="336.945,128.984 335.852,134.682 340.931,137.482 335.175,138.202 334.082,143.898 331.619,138.647 
	325.861,139.368 330.096,135.402 327.632,130.15 332.712,132.95 "/>
<polygon fill="#0C0C0C" points="26.96,123.216 28.054,128.913 22.975,131.713 28.729,132.434 29.824,138.13 32.287,132.878 
	38.043,133.599 33.809,129.633 36.273,124.382 31.192,127.182 "/>
<rect x="159.386" y="299.022" fill="none" width="47.492" height="30.683"/>
<text transform="matrix(1 0 0 1 159.3867 313.208)" fill="#0C0C0C" font-family="'BebasNeue'" font-size="20.2623">Social </text>
<text transform="matrix(1 0 0 1 159.3867 328.4043)" fill="#0C0C0C" font-family="'BebasNeue'" font-size="20.2623">digital </text>
<rect x="135.155" y="312.291" fill="#0C0C0C" width="12.663" height="2.34"/>
<rect x="217.048" y="312.291" fill="#0C0C0C" width="12.664" height="2.34"/>
</svg>
